# xmcd CD database file
#
# Track frame offsets:
#	150
#	12298
#	27025
#	37588
#	55479
#	64112
#	78721
#	89166
#	95484
#	115925
#	125949
#	152541
#	162575
#	177665
#	195861
#	211901
#	222508
#
# Disc length: 3117 seconds
#
# Revision: 0
# Processed by: cddbd v1.5.2PL0 Copyright (c) Steve Scherf et al.
# Submitted via: CDex 1.51
#
DISCID=ef0c2b11
DTITLE=Orpheon Celesta - De la fuite dans les idées
DYEAR=2006
DGENRE=Jazz
TTITLE0=Les gosses pelent de froid
TTITLE1=Donna lee
TTITLE2=Around midnight
TTITLE3=Bossa bossa
TTITLE4=Ainsi parlait Zarathoustra
TTITLE5=Caravan
TTITLE6=Fly me to the moon
TTITLE7=Bajo Fastoche
TTITLE8=Just a gigolo
TTITLE9=When the saints go marchin'in
TTITLE10=Zorro
TTITLE11=Rhino blues
TTITLE12=Quasimodo
TTITLE13=Concerto Carafon
TTITLE14=Raga minou
TTITLE15=Le dompteur attendri
TTITLE16=C'est kiki
EXTD=YEAR: 2006
EXTT0=
EXTT1=
EXTT2=
EXTT3=
EXTT4=
EXTT5=
EXTT6=
EXTT7=
EXTT8=
EXTT9=
EXTT10=
EXTT11=
EXTT12=
EXTT13=
EXTT14=
EXTT15=
EXTT16=
PLAYORDER=
